<svg width="34" height="30" viewBox="0 0 34 30" fill="none" xmlns="http://www.w3.org/2000/svg">
<path fill-rule="evenodd" clip-rule="evenodd" d="M30.0697 8.94086C29.2496 8.92784 28.5483 11.5651 28.505 14.8313C28.4622 18.0989 29.0917 20.7568 29.9117 20.7703C29.9563 20.7712 29.9992 20.7636 30.0416 20.7501V20.7515L30.0429 20.7488C30.0884 20.7344 30.133 20.7124 30.1767 20.6819L32.8251 19.341C33.4484 19.1597 33.9651 17.1019 33.9981 14.5836C34.0316 12.0504 33.5649 9.96885 32.9425 9.78615V9.7848L30.2223 8.97543L30.1312 8.94804L30.1277 8.94714L30.0697 8.94086Z" fill="#BFE1FF"/>
<path fill-rule="evenodd" clip-rule="evenodd" d="M17.5465 29.8618C25.7206 29.8618 32.3866 23.1539 32.3866 14.9313C32.3866 6.70613 25.7206 -7.62939e-06 17.5465 -7.62939e-06C9.37406 -7.62939e-06 2.70801 6.70613 2.70801 14.9313C2.70801 23.1539 9.37406 29.8618 17.5465 29.8618Z" fill="white"/>
<path fill-rule="evenodd" clip-rule="evenodd" d="M4.53544 8.02873C5.48263 8.01302 6.2908 11.0575 6.34184 14.8278C6.3915 18.5981 5.66511 21.6677 4.71756 21.6834C4.66755 21.6834 4.61735 21.6753 4.56854 21.6587V21.6596L4.56591 21.6574C4.51451 21.6408 4.46312 21.6152 4.41167 21.5815L1.35482 20.0341L1.21973 9.00374L4.35907 8.06689L4.4645 8.03547L4.46918 8.03412V8.03547L4.53544 8.02873Z" fill="white"/>
<path fill-rule="evenodd" clip-rule="evenodd" d="M6.34277 15.4679C6.30788 18.9402 5.61045 21.6677 4.7176 21.6834C4.66758 21.6834 4.61739 21.6753 4.56858 21.6587V21.6596L4.56595 21.6574C4.51455 21.6408 4.46315 21.6152 4.41171 21.5815L1.35486 20.0332L1.31738 17.0593C2.17311 16.3051 2.75901 15.7835 2.75901 15.7835L5.31134 16.1121C5.31134 16.1121 6.10921 16.2279 6.34277 15.4679Z" fill="#BFE1FF"/>
<path fill-rule="evenodd" clip-rule="evenodd" d="M1.31616 8.98797C2.08422 8.97585 2.73919 11.4421 2.77894 14.4955C2.82056 17.5503 2.23115 20.0359 1.46398 20.0489C0.696943 20.0624 0.0413118 17.5952 0.00209447 14.5413C-0.0397105 11.4857 0.549352 9.00009 1.31616 8.98797Z" fill="white"/>
<path fill-rule="evenodd" clip-rule="evenodd" d="M1.3254 9.69126C1.995 9.68048 2.56661 11.833 2.60235 14.4994C2.63719 17.165 2.12309 19.3346 1.45439 19.3458C0.784613 19.3566 0.212949 17.2045 0.177569 14.5385C0.141519 11.872 0.655094 9.70293 1.3254 9.69126Z" fill="#0163D2"/>
<path fill-rule="evenodd" clip-rule="evenodd" d="M1.34429 10.5991C1.83051 10.5915 2.24477 12.3382 2.26971 14.5037C2.29496 16.6674 1.92081 18.4284 1.4349 18.4378C0.949527 18.4464 0.534735 16.6988 0.510018 14.5346C0.484542 12.37 0.858377 10.609 1.34429 10.5991Z" fill="#0090FF"/>
<path fill-rule="evenodd" clip-rule="evenodd" d="M1.81172 11.165C2.07138 11.851 2.25529 13.0863 2.27095 14.504C2.2875 15.9292 2.13068 17.1803 1.88284 17.8707C1.62139 17.1866 1.43877 15.9508 1.42307 14.5349C1.40652 13.1083 1.56339 11.8568 1.81172 11.165Z" fill="#12006C"/>
<path fill-rule="evenodd" clip-rule="evenodd" d="M6.00293 5.54757C10.1616 1.7153 15.9242 6.3538 15.9242 6.3538L18.7585 7.10706L17.1769 3.34795C17.1769 3.34795 9.60445 0.839493 6.00293 5.54757Z" fill="#0163D2"/>
<path fill-rule="evenodd" clip-rule="evenodd" d="M20.0481 24.4565C25.2619 24.4565 29.5147 20.1776 29.5147 14.9318C29.5147 9.68364 25.2619 5.40381 20.0481 5.40381C14.8326 5.40381 10.5811 9.68364 10.5811 14.9318C10.5811 20.1776 14.8326 24.4565 20.0481 24.4565Z" fill="#12006C"/>
<path fill-rule="evenodd" clip-rule="evenodd" d="M16.949 10.3499C17.8944 10.3499 18.668 11.1296 18.668 12.0804V13.8859C18.668 14.8371 17.8944 15.6151 16.949 15.6151C16.0025 15.6151 15.2295 14.8371 15.2295 13.8859V12.0804C15.2295 11.1296 16.0025 10.3499 16.949 10.3499Z" fill="white"/>
<path fill-rule="evenodd" clip-rule="evenodd" d="M24.4377 10.3499C25.3822 10.3499 26.1559 11.1296 26.1559 12.0804V13.8859C26.1559 14.8371 25.3822 15.6151 24.4377 15.6151C23.4914 15.6151 22.7178 14.8371 22.7178 13.8859V12.0804C22.7178 11.1296 23.4914 10.3499 24.4377 10.3499Z" fill="white"/>
<path fill-rule="evenodd" clip-rule="evenodd" d="M20.3292 3.27614H23.1551C23.1551 3.27614 23.699 3.27389 23.8663 3.75287C24.0336 4.23139 24.8211 6.61371 24.8211 6.61371C24.8211 6.61371 25.0085 7.10706 24.3767 7.10706C23.7449 7.10706 20.3292 7.10706 20.3292 7.10706C20.3292 7.10706 16.9129 7.10706 16.2812 7.10706C15.6494 7.10706 15.8378 6.61371 15.8378 6.61371C15.8378 6.61371 16.6247 4.23139 16.7916 3.75287C16.9598 3.27389 17.5023 3.27614 17.5023 3.27614H20.3292Z" fill="#12006C"/>
<path d="M18.7864 30.0003C18.7177 30.0003 18.6508 29.9622 18.6169 29.8962C18.5094 29.6829 18.3947 29.4742 18.2778 29.2699C16.665 26.4872 11.7358 23.4136 8.72945 22.7236C7.68151 22.4821 6.56348 22.9234 5.73706 23.9006C5.66889 23.981 5.5495 23.9909 5.46901 23.9226C5.38795 23.8535 5.37871 23.7327 5.44689 23.6515C6.3674 22.5647 7.62574 22.0776 8.81346 22.3497C11.8939 23.0567 16.9487 26.2147 18.6066 29.0774C18.728 29.2866 18.8449 29.5029 18.9564 29.7224C19.0042 29.8163 18.9676 29.9321 18.873 29.9806L18.7864 30.0003Z" fill="#BFE1FF"/>
</svg>
